<?xml version="1.0" standalone="no"?>
<!DOCTYPE svg PUBLIC "-//W3C//DTD SVG 20010904//EN"
 "http://www.w3.org/TR/2001/REC-SVG-20010904/DTD/svg10.dtd">
<svg version="1.0" xmlns="http://www.w3.org/2000/svg"
 width="736.000000pt" height="736.000000pt" viewBox="0 0 736.000000 736.000000"
 preserveAspectRatio="xMidYMid meet">

<g transform="translate(0.000000,736.000000) scale(0.100000,-0.100000)"
fill="#000000" stroke="none">
<path d="M3585 6385 c-188 -25 -365 -94 -459 -176 -42 -37 -54 -43 -90 -41
-57 4 -154 -24 -194 -54 -18 -15 -46 -44 -62 -66 -16 -21 -47 -51 -70 -67 -78
-52 -128 -166 -115 -261 14 -105 118 -256 207 -301 22 -11 38 -27 38 -37 0
-39 53 -127 109 -182 l59 -58 7 -80 c6 -64 4 -89 -10 -126 -14 -36 -17 -66
-13 -139 6 -106 31 -174 97 -262 32 -43 41 -67 64 -175 15 -69 27 -128 27
-132 0 -3 -29 -22 -64 -42 -90 -51 -163 -119 -177 -167 -11 -34 -17 -40 -53
-49 -98 -25 -225 -67 -421 -138 -167 -61 -227 -88 -295 -133 -47 -31 -97 -69
-111 -85 -38 -42 -162 -286 -193 -379 -15 -44 -45 -168 -67 -275 -47 -233 -63
-292 -119 -430 -54 -131 -80 -229 -80 -300 l0 -56 -43 -11 c-62 -17 -162 -87
-209 -147 -22 -28 -52 -57 -67 -65 -78 -40 -105 -95 -147 -302 -37 -183 -40
-352 -6 -420 39 -79 122 -161 199 -197 224 -103 408 -91 643 44 42 24 71 33
122 36 77 6 137 36 187 93 l31 36 103 -21 c56 -12 132 -34 169 -50 217 -94
580 -143 1073 -144 497 -1 867 44 1087 133 40 16 137 41 215 57 l141 27 38
-33 c43 -37 108 -69 141 -70 13 0 46 -15 75 -33 111 -71 287 -123 448 -134
211 -13 365 48 412 164 23 56 48 201 48 274 0 129 -52 386 -97 477 -14 29 -32
44 -80 66 -45 22 -66 38 -74 59 -18 42 -88 108 -150 141 -110 59 -149 87 -149
110 0 37 -37 166 -70 246 -58 137 -79 209 -125 433 -50 239 -77 332 -126 430
-59 118 -181 271 -276 346 -60 49 -225 116 -413 170 -237 69 -255 77 -322 146
-32 34 -69 68 -81 74 -13 7 -38 39 -55 71 l-33 59 17 120 c17 116 18 120 46
132 16 6 46 32 68 56 37 42 50 69 64 136 4 16 13 27 23 27 8 0 30 8 47 19 19
11 51 19 85 19 106 2 243 99 302 213 64 126 64 301 1 424 -23 43 -26 61 -23
125 3 84 -12 136 -57 203 -16 23 -32 61 -36 85 -20 133 -147 266 -286 302 -35
9 -52 21 -78 56 -138 186 -454 277 -797 229z m440 -179 c172 -52 245 -105 277
-200 17 -51 48 -73 131 -90 37 -7 77 -22 89 -32 23 -21 52 -82 63 -132 6 -30
5 -32 -12 -23 -98 55 -113 42 -19 -17 81 -51 119 -109 119 -186 0 -29 -8 -66
-17 -85 -24 -45 -16 -66 49 -141 32 -37 60 -80 66 -103 20 -77 -12 -172 -78
-226 -34 -28 -127 -71 -154 -71 -6 0 8 21 31 48 50 55 76 110 61 125 -17 17
-38 1 -94 -75 -46 -63 -122 -138 -140 -138 -3 0 -11 16 -17 35 -6 20 -22 48
-34 63 -12 15 -27 49 -34 76 -11 42 -10 56 4 99 25 76 16 197 -21 273 -60 124
-211 226 -380 258 -110 20 -278 28 -349 16 -33 -5 -61 -8 -63 -7 -1 2 -9 37
-17 79 -14 72 -38 130 -69 171 -38 47 -36 -1 3 -68 25 -43 67 -182 58 -190 -2
-1 -74 -24 -160 -51 -87 -27 -158 -52 -158 -56 0 -15 49 -7 201 31 261 67 346
72 526 30 108 -24 193 -68 263 -135 81 -78 112 -139 118 -235 2 -43 2 -89 -2
-104 l-7 -26 -27 19 c-39 27 -263 120 -325 134 -71 17 -306 16 -392 -1 -129
-26 -218 -62 -349 -141 l-39 -24 7 55 c4 30 10 106 15 169 4 63 13 128 20 144
17 42 -3 60 -29 26 l-19 -25 -38 20 c-21 11 -78 60 -127 108 -49 48 -94 86
-100 84 -6 -2 -12 -16 -14 -30 -3 -21 8 -37 49 -77 55 -53 52 -62 -9 -31 -77
39 -112 104 -112 204 0 80 21 111 80 121 36 6 42 12 65 57 37 72 72 85 185 71
47 -5 91 -6 99 -2 8 4 37 36 65 71 41 51 61 67 96 77 25 8 74 25 110 39 113
44 173 53 325 49 116 -3 155 -8 230 -30z m-963 -738 c50 -19 51 -21 43 -64
l-7 -38 -25 32 c-13 18 -29 32 -34 32 -19 0 -8 -28 27 -68 19 -23 34 -49 32
-58 -2 -12 -15 -7 -58 24 -62 45 -90 86 -90 132 0 31 1 32 38 27 20 -2 54 -11
74 -19z m838 -277 c93 -23 232 -74 268 -97 18 -12 22 -24 22 -64 0 -27 5 -52
10 -55 8 -5 7 -11 -1 -21 -19 -23 -3 -27 45 -11 51 17 55 15 80 -44 11 -27 12
-46 5 -77 -10 -48 -57 -171 -72 -189 -11 -15 -47 -17 -47 -3 0 6 -9 10 -20 10
-24 0 -26 -6 -45 -179 -18 -158 -30 -184 -127 -277 -104 -100 -212 -142 -338
-131 -120 10 -291 92 -336 160 -36 55 -64 147 -80 255 -22 157 -29 178 -50
132 -8 -19 -10 -19 -32 -4 -53 37 -100 197 -81 277 12 51 19 60 42 51 13 -5
14 -10 1 -39 -16 -38 -19 -111 -5 -119 5 -3 12 5 15 19 3 13 11 36 17 51 l10
28 20 -33 c41 -67 65 -6 27 69 -23 45 -49 64 -100 75 -16 3 -28 9 -28 13 0 5
14 30 31 56 47 70 154 126 306 160 99 22 348 15 463 -13z m350 -136 c35 -18
38 -40 9 -56 -25 -13 -34 -5 -42 39 -7 37 -6 37 33 17z m-147 -997 l16 -83
-32 -53 c-52 -86 -151 -187 -233 -238 -71 -44 -78 -47 -108 -36 -39 14 -135
16 -169 3 -22 -8 -34 0 -127 94 -56 56 -101 108 -98 115 2 8 61 24 144 41 146
29 168 35 329 93 104 38 191 85 227 123 12 13 24 23 28 23 4 0 14 -37 23 -82z
m-947 -161 c0 -54 7 -76 50 -162 39 -80 58 -106 94 -132 99 -73 219 -168 220
-175 0 -5 -6 -8 -12 -8 -7 0 -62 -24 -121 -53 l-108 -53 -20 28 c-28 39 -103
201 -128 274 -27 81 -44 191 -36 234 7 38 42 110 53 110 4 0 7 -28 8 -63z
m1085 9 c27 -60 25 -163 -7 -272 -25 -88 -122 -306 -142 -318 -13 -8 -263 113
-256 125 3 5 23 18 45 29 64 33 171 142 245 250 66 97 69 103 72 170 5 77 14
81 43 16z m-931 -82 c47 -40 110 -98 140 -130 l55 -57 -50 28 c-27 16 -60 35
-72 43 -46 29 -20 3 65 -66 48 -39 104 -88 126 -110 33 -35 37 -44 31 -71 -8
-38 -19 -33 -46 21 -12 24 -24 36 -28 30 -4 -7 -33 8 -81 43 -161 118 -189
152 -230 270 -36 105 -35 105 90 -1z m-314 -47 c1 -87 5 -116 33 -197 38 -113
93 -208 156 -272 52 -52 47 -52 170 2 96 43 165 68 165 61 0 -4 -14 -20 -31
-37 -17 -16 -41 -47 -54 -69 -13 -22 -45 -57 -70 -78 -53 -44 -48 -44 -329
-52 l-198 -5 6 92 c4 51 9 120 12 153 l6 60 -33 -37 c-19 -20 -52 -53 -74 -73
l-40 -37 35 6 c27 4 31 3 17 -5 -10 -6 -29 -9 -42 -7 -24 3 -23 5 32 68 31 36
69 83 85 104 29 40 37 86 16 86 -7 0 -67 -29 -133 -63 l-120 -62 -6 -75 c-10
-108 -12 -496 -4 -510 4 -6 -1 -20 -10 -30 -17 -19 -18 -19 -51 7 -19 14 -41
23 -49 19 -19 -7 -19 -56 0 -103 9 -22 15 -68 15 -121 0 -70 -6 -104 -35 -193
-19 -60 -35 -120 -35 -134 0 -14 -16 -58 -37 -98 -20 -39 -46 -97 -58 -127
l-23 -54 -73 -23 -74 -22 -77 24 c-42 13 -107 30 -143 37 -63 11 -67 14 -81
48 -10 24 -26 42 -49 53 -50 24 -69 67 -62 141 3 34 11 75 17 92 10 28 18 33
67 43 31 6 97 11 147 11 85 1 89 2 64 15 -15 8 -53 21 -86 29 -99 23 -103 26
-96 99 3 34 12 82 20 107 23 77 53 210 69 315 22 144 33 178 90 290 29 55 60
130 70 168 20 74 57 122 102 133 141 33 135 30 228 104 47 38 123 79 171 94
20 6 21 4 17 -41 -3 -26 -8 -72 -12 -100 -5 -29 -5 -53 -1 -53 4 0 36 13 71
29 35 17 82 33 104 37 55 9 35 -9 -35 -31 -30 -10 -76 -26 -102 -37 -42 -18
-48 -24 -48 -50 0 -20 4 -28 13 -25 131 54 170 67 205 73 23 4 42 12 43 18 0
6 8 69 17 141 l17 130 35 17 c19 9 40 17 45 17 6 1 10 -40 11 -102z m1378 89
c26 -11 35 -22 40 -49 6 -31 12 -37 74 -62 37 -16 97 -43 134 -62 37 -18 71
-33 76 -33 5 0 7 23 4 50 l-5 51 54 -24 c73 -32 127 -67 189 -122 43 -39 57
-45 94 -45 68 0 104 -17 130 -64 13 -22 27 -59 31 -81 3 -22 17 -58 30 -80 13
-23 31 -69 40 -104 9 -36 30 -101 46 -145 17 -45 41 -134 54 -198 14 -65 32
-146 41 -180 10 -42 14 -80 9 -115 l-6 -53 -52 0 c-100 0 -107 -10 -26 -37 93
-30 178 -80 206 -122 39 -58 63 -149 55 -211 l-7 -54 -80 -12 c-44 -6 -98 -19
-119 -28 -22 -9 -41 -14 -43 -12 -9 9 27 76 62 115 53 58 43 75 -36 68 -85 -7
-159 -48 -230 -125 -32 -36 -56 -68 -53 -73 2 -5 32 13 64 40 76 60 143 97
196 106 l41 6 -28 -58 c-32 -67 -41 -109 -21 -105 8 1 34 5 58 9 44 6 44 5 44
-24 0 -30 -1 -31 -103 -56 -98 -25 -106 -25 -153 -11 -27 8 -71 20 -97 25 -38
9 -51 17 -59 37 -6 15 -33 73 -59 129 -27 56 -49 114 -49 128 0 14 -18 81 -39
148 -56 171 -59 202 -28 263 46 90 44 151 -5 126 -13 -7 -31 -17 -40 -24 -15
-10 -20 -9 -32 7 -8 11 -12 30 -10 42 4 16 1 21 -13 20 -17 -2 -18 14 -23 260
-3 144 -7 263 -10 265 -40 31 -270 150 -271 141 -7 -51 7 -82 67 -155 73 -88
73 -103 -1 -28 -54 55 -68 61 -61 28 3 -13 8 -68 11 -123 l6 -100 -228 3 -228
3 -35 38 c-37 41 -111 153 -104 160 2 2 45 -14 96 -37 137 -60 140 -60 172
-17 79 104 172 373 179 517 1 32 6 58 10 58 4 0 23 -6 41 -14z m-266 -53 c-29
-81 -81 -158 -146 -221 -83 -79 -84 -79 -126 -28 l-36 44 56 27 c38 19 89 60
157 129 56 56 105 103 109 104 4 1 -2 -24 -14 -55z m-374 -214 c14 -11 38 -41
52 -65 22 -37 25 -50 16 -68 -12 -27 -62 -53 -120 -62 l-43 -7 11 27 c19 51 5
126 -30 164 -11 11 -20 24 -20 27 0 3 24 5 54 5 39 0 60 -6 80 -21z m87 -276
c40 -42 69 -83 69 -96 0 -5 -17 -6 -37 -3 -21 4 -66 9 -100 12 -35 4 -63 8
-63 10 0 13 33 81 47 96 24 27 45 22 84 -19z m-263 -39 c-6 -21 -16 -45 -21
-51 -11 -15 -57 -17 -57 -3 0 11 81 102 86 97 2 -2 -2 -21 -8 -43z m84 -4 c3
-36 1 -40 -19 -40 -27 0 -27 0 -12 51 14 47 26 43 31 -11z m895 14 c-3 -3 -12
-4 -19 -1 -8 3 -5 6 6 6 11 1 17 -2 13 -5z m46 -11 c-7 -2 -19 -2 -25 0 -7 3
-2 5 12 5 14 0 19 -2 13 -5z m-728 -150 c57 -7 72 -12 79 -29 5 -12 24 -27 42
-33 86 -31 106 -114 55 -233 -16 -38 -26 -70 -23 -72 4 -2 39 -14 77 -26 340
-110 636 -381 780 -716 40 -94 84 -254 92 -341 6 -62 6 -62 -28 -82 -94 -57
-386 -113 -749 -143 -197 -16 -828 -16 -1010 0 -392 35 -682 93 -760 152 l-25
19 18 101 c31 184 103 362 209 519 68 99 232 263 332 330 95 64 255 143 343
168 49 14 62 21 57 33 -27 64 -54 150 -54 175 0 43 34 92 77 113 21 9 40 20
41 25 12 25 38 37 85 38 29 0 61 4 72 9 22 10 177 6 290 -7z m-2086 -1039 c2
-2 -1 -15 -7 -29 -10 -22 -18 -25 -60 -25 -37 0 -70 -10 -139 -44 -73 -35
-100 -55 -143 -105 -29 -34 -55 -59 -57 -57 -9 8 52 101 90 139 51 51 125 97
156 97 15 0 37 9 51 20 20 16 34 19 65 14 22 -3 42 -8 44 -10z m3976 -19 c32
-19 88 -46 126 -60 71 -28 142 -73 172 -112 10 -13 25 -23 33 -23 8 0 22 -16
30 -36 23 -54 74 -377 74 -466 0 -67 -4 -84 -33 -139 -37 -72 -89 -117 -169
-147 -64 -23 -154 -37 -124 -19 68 42 86 59 126 120 25 37 58 90 73 119 l28
53 -33 -40 c-167 -201 -231 -236 -387 -215 -84 12 -198 47 -187 57 3 3 54 7
113 9 208 8 287 31 369 106 113 103 185 385 128 504 -17 38 -155 174 -176 174
-4 0 -48 18 -97 40 -62 28 -102 40 -134 40 -36 0 -49 5 -57 19 -15 29 -12 39
13 44 45 9 56 6 112 -28z m-3875 -110 c56 -26 131 -52 179 -62 59 -11 101 -28
149 -57 37 -22 83 -45 102 -52 31 -11 35 -17 33 -44 0 -17 -4 -34 -7 -37 -14
-14 -451 41 -512 64 -12 4 -15 3 -10 -6 4 -6 -2 -32 -15 -57 -46 -96 -22 -193
68 -273 26 -23 61 -54 78 -69 16 -15 25 -21 21 -13 -5 8 -5 12 0 9 5 -2 28
-13 52 -23 23 -10 42 -22 42 -27 0 -13 -114 -9 -156 6 -42 15 -192 101 -236
136 -16 12 -28 18 -28 13 0 -22 177 -147 245 -173 17 -7 84 -12 155 -12 68 0
135 -4 149 -9 23 -9 22 -11 -30 -44 -30 -19 -68 -37 -86 -41 -37 -7 -109 14
-203 61 -36 18 -88 40 -117 49 -32 11 -62 29 -78 47 -14 17 -25 26 -25 21 0
-15 50 -72 63 -72 7 0 48 -18 92 -40 l80 -40 -75 6 c-94 6 -165 39 -213 97
-122 150 -184 294 -175 410 9 114 66 184 198 246 94 45 140 42 260 -14z m3910
12 c30 -14 82 -48 115 -74 50 -40 63 -58 78 -103 16 -47 17 -65 8 -119 -26
-160 -194 -408 -298 -439 -50 -15 -163 -27 -163 -18 0 4 35 23 78 42 117 53
119 54 131 81 17 36 13 38 -14 4 -14 -16 -42 -35 -63 -41 -20 -7 -86 -35 -147
-62 -140 -65 -186 -68 -264 -18 l-55 34 35 14 c23 10 53 12 94 8 110 -10 187
7 277 61 88 53 158 109 158 126 0 6 -10 2 -22 -9 -32 -28 -206 -129 -247 -143
-39 -13 -141 -15 -141 -3 0 6 61 34 80 37 3 0 33 19 67 43 128 87 170 190 127
315 -23 69 -27 70 -145 47 -179 -36 -359 -58 -397 -49 -39 8 -47 15 -56 46 -6
19 -2 23 31 28 21 4 72 26 113 49 80 46 113 58 201 76 31 6 90 27 130 47 41
19 85 39 99 44 45 15 132 4 190 -24z m-700 -106 l65 -19 -35 -15 c-48 -21
-110 -32 -110 -19 0 5 -3 24 -6 41 -8 37 -3 38 86 12z m-3763 -43 c-29 -46
-32 -61 -35 -139 -6 -140 46 -303 125 -390 76 -84 167 -114 371 -122 68 -2
125 -7 128 -10 10 -10 -102 -45 -184 -56 -46 -7 -98 -9 -115 -5 -78 16 -166
84 -248 190 -23 30 -44 53 -46 50 -5 -4 79 -145 115 -194 14 -18 45 -45 69
-59 24 -14 43 -27 41 -28 -9 -8 -116 17 -162 38 -106 49 -166 136 -174 253 -6
94 42 405 77 497 8 21 17 27 40 27 l30 0 -32 -52z m1042 22 c-8 -22 -17 -30
-35 -30 -26 0 -74 19 -74 30 0 8 65 27 97 29 20 1 21 -1 12 -29z m3084 -176
c-41 -18 -188 -41 -315 -50 -92 -6 -98 -6 -98 12 0 18 10 19 158 20 110 1 172
6 207 17 63 19 90 20 48 1z m-3190 -14 c62 0 67 -2 67 -21 0 -21 -3 -21 -82
-15 -140 12 -248 29 -248 39 0 6 35 8 98 4 53 -4 127 -7 165 -7z m3255 -38 c3
-35 -2 -46 -34 -82 -124 -138 -581 -251 -1189 -294 -806 -58 -1635 3 -2102
156 -204 66 -315 151 -298 228 6 27 10 31 28 26 68 -20 176 -37 274 -42 62 -4
113 -10 113 -15 0 -16 -70 -31 -192 -42 -71 -6 -128 -14 -128 -18 0 -4 21 -12
47 -17 43 -9 85 -15 298 -38 l60 -7 -73 -24 c-41 -14 -70 -29 -65 -33 22 -22
187 -43 363 -45 102 -1 163 -1 135 1 -27 2 -117 8 -200 14 -184 13 -245 20
-245 30 0 4 18 10 41 14 47 8 124 44 114 54 -4 4 -82 16 -173 28 -152 19 -162
22 -117 28 28 4 74 14 104 22 54 15 54 15 113 -16 94 -50 342 -122 533 -154
375 -64 940 -72 1313 -20 170 23 597 112 667 139 36 13 81 36 100 50 29 23 37
25 56 15 29 -16 161 -39 223 -40 106 0 25 -16 -160 -30 -109 -8 -195 -19 -197
-25 -3 -14 66 -46 114 -52 22 -3 37 -9 32 -14 -9 -9 -168 -26 -358 -39 l-130
-8 180 3 c169 2 348 24 368 44 4 4 -25 19 -65 33 l-73 26 45 5 c25 4 95 11
155 17 61 6 131 16 158 22 49 10 64 28 25 28 -49 1 -216 20 -263 31 -40 10
-46 14 -30 20 11 4 44 8 74 8 72 1 251 28 298 46 51 18 58 15 61 -33z m-4080
-197 c34 -64 75 -113 132 -158 l35 -27 -46 15 c-107 36 -182 165 -203 350 -6
46 -4 43 22 -35 15 -47 43 -112 60 -145z m4603 142 c-34 -178 -101 -283 -199
-312 -18 -5 -8 9 35 52 66 66 122 169 150 276 21 81 30 70 14 -16z m-2781
-168 c106 -7 335 -10 540 -8 195 2 330 1 300 -3 -30 -4 -197 -10 -370 -14
-253 -5 -352 -3 -505 10 -104 10 -206 21 -225 26 -30 8 -28 9 20 5 30 -2 138
-10 240 -16z"/>
<path d="M4033 6000 c-97 -49 -169 -145 -187 -252 -10 -57 9 -46 32 20 43 116
130 194 250 223 51 12 51 33 1 37 -23 2 -55 -7 -96 -28z"/>
<path d="M3324 5993 c-27 -40 -25 -144 3 -198 50 -93 80 -104 38 -14 -29 62
-33 132 -10 186 8 19 15 39 15 44 0 19 -29 8 -46 -18z"/>
<path d="M4156 5929 c-5 -32 -19 -53 -69 -103 -34 -35 -73 -70 -86 -79 -42
-28 -14 -31 32 -4 91 54 177 176 152 216 -12 21 -23 11 -29 -30z"/>
<path d="M2984 5845 c-18 -15 -17 -16 13 -10 42 8 68 -10 127 -86 35 -44 51
-58 59 -50 16 16 -7 52 -69 111 -57 54 -93 63 -130 35z"/>
<path d="M2975 5761 c-15 -26 62 -104 144 -146 56 -28 61 -29 61 -15 0 5 -21
24 -47 42 -27 17 -71 54 -100 81 -29 27 -54 44 -58 38z"/>
<path d="M4322 5677 c-38 -12 -131 -91 -120 -102 4 -4 22 5 42 20 43 32 126
65 166 65 28 0 30 -3 30 -35 0 -42 21 -47 39 -9 10 22 9 31 -4 50 -13 21 -23
24 -68 23 -28 -1 -67 -6 -85 -12z"/>
<path d="M3330 5543 c-48 -8 -130 -36 -130 -44 0 -11 -4 -12 54 6 57 17 126
20 126 5 0 -6 -29 -40 -65 -75 -64 -62 -112 -143 -102 -169 6 -16 110 -13 115
3 3 10 -39 32 -56 30 -32 -5 -9 33 70 118 46 50 68 88 68 119 0 14 -25 16 -80
7z"/>
<path d="M4375 5535 c-22 -8 -56 -14 -75 -15 -34 -1 -34 -2 -10 -11 37 -15
150 9 150 32 0 12 -16 10 -65 -6z"/>
<path d="M3548 5356 c-37 -6 -69 -13 -72 -16 -2 -3 77 -5 177 -5 164 -1 191
-3 278 -27 52 -14 128 -40 168 -57 82 -35 91 -37 91 -18 0 17 -72 69 -125 91
-106 45 -353 60 -517 32z"/>
<path d="M4537 5303 c-3 -4 -23 -42 -45 -84 -22 -42 -56 -99 -76 -127 -53 -74
-28 -72 42 3 75 80 115 145 110 181 -3 27 -21 43 -31 27z"/>
<path d="M3253 5128 c-16 -20 -43 -109 -43 -140 0 -54 26 -29 54 51 26 74 27
101 7 101 -5 0 -13 -6 -18 -12z"/>
<path d="M3560 5100 c-8 -6 -57 -9 -109 -8 l-94 1 -34 -36 c-18 -20 -33 -44
-33 -52 0 -17 6 -15 51 17 22 16 33 18 90 10 35 -5 53 -10 39 -11 -25 -2 -25
-2 5 -16 l30 -13 -47 -1 c-51 -1 -141 -38 -135 -56 5 -14 150 -17 159 -3 5 9
11 8 23 -2 25 -20 61 1 60 35 0 23 -7 31 -35 41 l-35 12 30 1 c35 1 95 35 95
54 0 16 -20 37 -34 37 -6 0 -18 -5 -26 -10z"/>
<path d="M3796 5094 c-30 -29 21 -73 88 -75 14 0 10 -4 -14 -12 -29 -10 -35
-17 -35 -41 0 -37 27 -56 55 -39 11 8 21 9 25 3 8 -13 157 -8 162 6 6 17 -89
54 -139 55 l-43 1 30 13 c25 11 26 13 10 17 -11 2 7 7 39 11 53 7 63 5 97 -18
53 -35 60 -13 10 36 l-40 40 -88 -2 c-54 -2 -96 2 -110 9 -28 15 -28 15 -47
-4z"/>
<path d="M3610 4896 l0 -125 -29 -20 c-33 -24 -55 -71 -49 -104 4 -22 -1 -25
-67 -40 -39 -10 -86 -17 -103 -17 -28 0 -32 -4 -32 -25 0 -39 26 -92 51 -105
12 -7 43 -10 70 -8 43 5 50 2 65 -19 8 -14 40 -36 70 -50 47 -21 67 -25 132
-22 88 5 191 46 200 81 4 16 11 19 36 14 73 -14 126 33 126 112 0 29 -2 32
-24 26 -13 -3 -47 2 -77 10 -29 9 -65 16 -81 16 -28 0 -37 13 -18 25 20 13 9
49 -26 81 -49 47 -76 45 -35 -1 37 -43 39 -55 6 -55 -28 0 -95 -30 -95 -42 0
-5 10 -12 21 -17 20 -7 20 -8 -10 -21 -28 -11 -39 -10 -87 6 -29 10 -54 22
-54 26 0 4 12 3 27 -3 31 -12 53 -6 53 15 0 19 -39 30 -80 24 -37 -6 -39 10
-6 41 16 15 25 19 28 10 2 -7 11 -10 21 -6 15 6 17 25 17 162 l0 155 -25 0
-25 0 0 -124z m269 -423 c22 -9 21 -11 -29 -32 -101 -43 -189 -45 -288 -6 -23
10 -42 21 -42 25 0 23 305 34 359 13z"/>
<path d="M4238 4915 c-7 -7 34 -145 43 -145 14 0 16 55 5 99 -10 41 -31 62
-48 46z"/>
<path d="M3459 4900 c-58 -10 -129 -41 -149 -65 -14 -17 -14 -17 17 -2 30 16
74 27 166 42 23 4 37 11 37 20 0 16 -3 16 -71 5z"/>
<path d="M3870 4896 c0 -17 15 -22 92 -31 32 -3 79 -17 105 -30 l48 -24 -34
29 c-54 46 -211 87 -211 56z"/>
<path d="M4209 4800 c-1 -16 -2 -35 -3 -42 -1 -6 4 -13 10 -15 14 -5 27 42 19
68 -10 29 -25 23 -26 -11z"/>
<path d="M3205 4750 c-8 -24 11 -60 30 -60 17 0 19 18 5 54 -11 31 -26 33 -35
6z"/>
<path d="M3486 4412 c-9 -14 62 -90 105 -112 49 -26 184 -28 235 -4 34 16 114
96 114 114 0 15 -4 13 -46 -26 -53 -51 -91 -64 -179 -64 -89 0 -135 16 -186
66 -20 20 -39 32 -43 26z"/>
<path d="M3406 4383 c-15 -16 -3 -52 29 -83 19 -18 37 -32 39 -29 7 6 -39 105
-52 113 -5 3 -12 3 -16 -1z"/>
<path d="M3992 4378 c-18 -24 -42 -77 -42 -94 0 -14 8 -10 35 16 24 23 35 43
35 62 0 30 -11 36 -28 16z"/>
<path d="M2103 3214 c-41 -46 -154 -376 -133 -389 4 -2 29 6 56 20 26 13 50
23 51 21 2 -2 -10 -24 -27 -50 -45 -66 -113 -215 -106 -232 11 -28 18 -18 99
156 20 41 57 100 83 130 40 47 44 56 28 59 -10 2 -47 -12 -81 -30 -34 -18 -64
-31 -67 -28 -9 9 42 175 84 272 22 50 38 92 37 93 -1 2 -12 -8 -24 -22z"/>
<path d="M2360 3010 c0 -10 93 -102 143 -140 51 -40 27 -1 -46 75 -67 69 -97
90 -97 65z"/>
<path d="M2230 2985 c-14 -17 -9 -27 70 -145 32 -47 72 -112 89 -145 54 -101
65 -96 35 18 -23 89 -66 178 -109 226 -49 54 -69 65 -85 46z"/>
<path d="M1894 2336 c-3 -7 16 -45 42 -82 41 -61 77 -129 105 -201 6 -16 -18
0 -73 48 -45 39 -91 75 -103 80 -11 6 -2 -5 20 -23 22 -18 66 -57 97 -86 92
-87 100 -56 29 109 -22 51 -39 94 -38 96 9 9 144 -93 210 -158 93 -92 107
-100 107 -58 0 22 -17 50 -64 107 -66 79 -100 103 -222 150 -77 30 -104 35
-110 18z"/>
<path d="M4423 3730 c3 -19 9 -65 12 -101 l7 -66 53 -12 c29 -7 90 -30 135
-52 45 -21 83 -39 86 -39 6 0 5 59 -2 101 -6 35 -13 40 -128 105 -66 37 -132
75 -145 83 -24 15 -24 15 -18 -19z"/>
<path d="M4927 2981 c-44 -40 -114 -131 -101 -131 11 0 154 131 165 151 17 34
-18 22 -64 -20z"/>
<path d="M5057 2957 c-53 -53 -100 -141 -126 -237 -34 -123 -24 -135 28 -34
19 37 58 101 86 143 54 79 85 133 85 149 0 6 -7 13 -15 16 -10 4 -31 -10 -58
-37z"/>
<path d="M3725 3523 c9 -63 25 -79 25 -26 0 48 -8 73 -22 73 -7 0 -8 -18 -3
-47z"/>
<path d="M3935 3008 c-10 -32 -12 -33 -80 -41 -145 -18 -394 -8 -424 16 -7 6
-17 20 -21 32 -9 19 -9 19 -9 -2 -1 -12 -5 -25 -11 -28 -18 -11 -11 -63 17
-130 l27 -65 95 7 c122 10 194 10 302 0 l86 -8 27 60 c28 62 31 90 20 154 -8
46 -17 47 -29 5z"/>
<path d="M4163 2609 c117 -65 259 -207 405 -404 24 -33 85 -143 134 -244 132
-273 178 -329 164 -200 -25 218 -236 552 -451 714 -42 32 -118 79 -168 105
-105 55 -172 77 -84 29z"/>
<path d="M3020 2548 c-258 -195 -426 -428 -524 -729 -54 -166 -56 -157 44
-191 104 -36 259 -72 405 -93 129 -19 466 -35 479 -23 6 4 -5 8 -25 8 -63 0
-243 50 -326 91 -192 95 -244 191 -209 382 27 141 94 306 180 442 47 74 51 84
16 45 -95 -105 -167 -216 -251 -385 -94 -188 -100 -193 -42 -35 63 169 166
356 250 452 81 94 82 95 3 36z"/>
<path d="M4180 2489 c0 -7 33 -51 73 -98 169 -200 297 -380 394 -556 30 -55
30 -57 5 -25 -81 105 -202 213 -219 196 -6 -6 116 -377 128 -391 19 -19 7 28
-42 181 -28 86 -53 164 -56 173 -12 33 91 -78 178 -191 86 -113 109 -135 109
-104 0 46 -196 402 -307 559 -59 82 -233 267 -253 267 -5 0 -10 -5 -10 -11z"/>
<path d="M2940 1786 c0 -11 205 -135 270 -163 82 -35 205 -61 236 -49 28 11 8
20 -116 51 -121 31 -217 69 -312 125 -64 38 -78 45 -78 36z"/>
<path d="M1466 1789 c-32 -37 -34 -83 -7 -161 17 -51 50 -120 50 -108 1 3 -6
27 -14 54 -21 68 -19 142 5 195 24 52 24 51 6 51 -8 0 -26 -14 -40 -31z"/>
<path d="M2030 1255 c0 -11 32 -34 48 -35 6 0 12 7 12 15 0 8 -6 15 -14 15 -8
0 -21 3 -30 6 -9 3 -16 3 -16 -1z"/>
<path d="M5878 1814 c-4 -3 2 -24 13 -47 23 -51 25 -138 4 -197 -19 -54 -19
-63 1 -26 26 48 54 137 54 173 0 57 -48 122 -72 97z"/>
<path d="M5313 1253 c-13 -2 -23 -11 -23 -19 0 -17 14 -18 41 -4 18 10 27 31
12 29 -5 -1 -18 -4 -30 -6z"/>
</g>
</svg>
